Coordinates
version=1
nRows=7
nColumns=46
inDegrees=yes

Units are S.I. units (second, meters, Newtons, ...)
Angles are in degrees.

endheader
time	pelvis_tilt	pelvis_list	pelvis_rotation	pelvis_tx	pelvis_ty	pelvis_tz	bb_angle	bb_tx	bb_ty	bb_tz	hip_flexion_r	hip_adduction_r	hip_rotation_r	knee_angle_r	knee_angle_r_beta	ankle_angle_r	subtalar_angle_r	mtp_angle_r	crank_angle_r	hip_flexion_l	hip_adduction_l	hip_rotation_l	knee_angle_l	knee_angle_l_beta	ankle_angle_l	subtalar_angle_l	mtp_angle_l	crank_angle_l	lumbar_extension	lumbar_bending	lumbar_rotation	arm_flex_r	arm_add_r	arm_rot_r	elbow_flex_r	pro_sup_r	wrist_flex_r	wrist_dev_r	arm_flex_l	arm_add_l	arm_rot_l	elbow_flex_l	pro_sup_l	wrist_flex_l	wrist_dev_l
      5.00000000	    -12.25954002	      4.06704072	      2.09448683	      0.16682892	      1.14225802	     -0.21415686	      0.00000000	      0.50000000	      0.00000000	      0.25000000	     44.37130019	     -5.84306886	      6.17123210	     32.84757113	      0.57329827	     -6.57880751	     -9.00936350	      0.00000000	      0.00000000	     65.87560138	      4.18625240	      8.02012298	     98.91033800	      1.72631106	     -7.65472281	     -9.25573551	      0.00000000	      0.00000000	    -66.22767722	     -2.88401741	    -12.72737700	     89.24212022	     -4.38647346	     36.36966098	     46.35325294	     30.89900391	      0.00000000	      0.00000000	     88.95749912	    -21.80367758	     25.23280109	     55.42277786	     37.81779721	      0.00000000	      0.00000000
      5.00500000	    -12.63649918	      4.47364205	      2.79065894	      0.16762719	      1.14225868	     -0.21369031	      0.00000000	      0.50000000	      0.00000000	      0.25000000	     42.96294838	     -6.58670349	      6.04270064	     30.46988352	      0.53179979	     -8.14271776	     -9.08770064	      0.00000000	      0.00000000	     67.51773478	      4.92329234	      7.92536904	    100.27765370	      1.75017522	     -6.81767091	     -9.03712223	      0.00000000	      0.00000000	    -65.87534761	     -3.03919636	    -13.61385101	     89.23339529	     -4.23369639	     36.57542654	     45.41763228	     30.85604888	      0.00000000	      0.00000000	     88.97812556	    -21.50364087	     25.09243265	     55.56747863	     37.84027487	      0.00000000	      0.00000000
      5.01000000	    -13.10038296	      4.99167392	      3.60537912	      0.16823611	      1.14239705	     -0.21313294	      0.00000000	      0.50000000	      0.00000000	      0.25000000	     41.64197835	     -7.52053088	      5.72530374	     28.13972171	      0.49113079	     -9.63890428	     -8.96528467	      0.00000000	      0.00000000	     69.22029894	      5.78481059	      7.72356283	    101.43541662	      1.77038200	     -6.03865021	     -8.92826638	      0.00000000	      0.00000000	    -65.49212797	     -3.21130189	    -14.62543259	     89.18745685	     -4.18646970	     36.80047949	     44.72853240	     30.85663979	      0.00000000	      0.00000000	     89.03712539	    -21.19792589	     25.10044020	     55.72248762	     37.86454127	      0.00000000	      0.00000000
      5.01500000	    -13.50588322	      5.43726187	      4.17100162	      0.16924926	      1.14256351	     -0.21290807	      0.00000000	      0.50000000	      0.00000000	      0.25000000	     40.25351114	     -8.30486288	      5.32959395	     25.81146183	      0.45049499	    -11.03556241	     -8.61024897	      0.00000000	      0.00000000	     70.84598362	      6.34597986	      7.36657205	    102.56287958	      1.79005994	     -5.16576855	     -8.66766583	      0.00000000	      0.00000000	    -65.16678525	     -3.55282285	    -15.45234693	     89.13026250	     -4.26023157	     37.15684774	     43.84259352	     30.83037537	      0.00000000	      0.00000000	     89.05985914	    -20.86179493	     25.18739044	     55.88670251	     37.89297558	      0.00000000	      0.00000000
      5.02000000	    -13.95589541	      5.83217502	      4.95800017	      0.16955158	      1.14282900	     -0.21234536	      0.00000000	      0.50000000	      0.00000000	      0.25000000	     38.93307623	     -9.12543896	      4.74990080	     23.60493270	      0.41198380	    -12.46849164	     -8.31486701	      0.00000000	      0.00000000	     72.53423658	      6.99829714	      7.12454262	    103.49039721	      1.80624818	     -4.54241838	     -8.38669658	      0.00000000	      0.00000000	    -64.82804275	     -3.68664518	    -16.29954783	     89.13009383	     -4.29072423	     37.57067793	     42.99126422	     30.82546211	      0.00000000	      0.00000000	     89.11720340	    -20.56236447	     25.34353669	     56.02448881	     37.89720175	      0.00000000	      0.00000000
      5.02500000	    -14.38198369	      6.19273189	      5.70419503	      0.17024530	      1.14318978	     -0.21169226	      0.00000000	      0.50000000	      0.00000000	      0.25000000	     37.58602444	     -9.91404485	      3.83194244	     21.46911856	      0.37470681	    -13.81238643	     -7.70048015	      0.00000000	      0.00000000	     74.12605421	      7.49952835	      6.84723559	    104.29171683	      1.82023384	     -3.80234266	     -7.86438799	      0.00000000	      0.00000000	    -64.52740320	     -3.89589413	    -17.04214869	     89.07422707	     -4.46368396	     37.82933264	     42.22285650	     30.79588866	      0.00000000	      0.00000000	     89.16158762	    -20.17047398	     25.57567228	     56.18733540	     37.90980089	      0.00000000	      0.00000000
      5.03000000	    -14.87569084	      6.43658463	      6.32999591	      0.17076724	      1.14340321	     -0.21108055	      0.00000000	      0.50000000	      0.00000000	      0.25000000	     36.33602221	    -10.50950956	      3.05343979	     19.36681734	      0.33801473	    -15.08733107	     -7.03223796	      0.00000000	      0.00000000	     75.80756881	      7.80567693	      6.58376631	    105.01403701	      1.83284071	     -3.09146512	     -7.30722519	      0.00000000	      0.00000000	    -64.12529157	     -4.13550390	    -17.65136635	     89.06725226	     -4.55393537	     38.25642918	     41.28926066	     30.81149977	      0.00000000	      0.00000000	     89.19776611	    -19.83159036	     25.86186475	     56.25102308	     37.87141846	      0.00000000	      0.00000000
